<svg width="1152" height="122" viewBox="0 0 1152 122" fill="none" xmlns="http://www.w3.org/2000/svg">
<path d="M99.8757 118.525V2.73783H129.617V118.544H99.8757V118.525Z" fill="#757E6C"/>
<path d="M395.335 57.9128C395.335 60.4034 395.104 63.3504 394.872 65.1756H309.355C311.884 86.0706 326.185 97.8775 347.163 97.8775C359.612 97.8775 376.441 94.0179 388.195 88.7894V111.491C378.506 116.719 360.306 121.263 343.709 121.263C303.836 121.263 281.236 94.6833 281.236 59.719C281.236 22.2449 306.827 0 340.698 0C374.569 0 395.567 24.2983 395.335 57.9128ZM310.745 46.5431H367.447C365.382 32.0174 355.925 23.1575 340.717 23.1575C325.509 23.1575 314.431 32.0174 310.745 46.5431Z" fill="#757E6C"/>
<path d="M479.019 112.631V88.7894C489.846 95.1397 506.212 98.5619 517.966 98.5619C528.349 98.5619 538.944 94.2461 538.944 86.0706C538.944 79.7203 533.869 76.298 526.728 74.4918L505.98 69.0352C485.002 63.5785 477.166 50.1936 477.166 34.299C477.166 12.9477 498.145 0 524.894 0C538.5 0 552.551 3.17512 559.692 7.49101V30.8767C549.772 25.42 535.49 23.1575 524.663 23.1575C514.974 23.1575 506.444 26.5608 506.444 34.9644C506.444 40.8583 511.288 44.2616 518.892 46.315L538.018 51.7716C561.988 58.1219 568.222 71.5259 568.222 86.5079C568.222 110.122 546.085 121.244 518.429 121.244C503.684 121.244 486.391 117.156 479.019 112.612V112.631Z" fill="#757E6C"/>
<path d="M678.173 2.73783H707.913V118.544H678.173V104.247C669.642 114.476 655.129 121.282 640.133 121.282C615.236 121.282 597.037 105.388 597.037 75.6326V2.73783H627.009V72.0012C627.009 87.4395 636.003 96.0713 649.821 96.0713C660.417 96.0713 671.032 89.9492 678.173 80.4048V2.73783Z" fill="#757E6C"/>
<path d="M858.663 45.6495V118.544H828.923V49.281C828.923 33.8426 819.697 25.2109 805.879 25.2109C795.283 25.2109 784.668 31.333 777.527 40.8773V118.525H747.787V2.73783H777.527V17.0354C786.29 6.80655 800.571 0 815.567 0C840.464 0 858.663 15.8946 858.663 45.6495Z" fill="#757E6C"/>
<path d="M1008.02 45.6495V118.544H978.283V49.281C978.283 33.8426 969.058 25.2109 955.239 25.2109C944.644 25.2109 934.029 31.333 926.888 40.8773V118.525H897.147V2.73783H926.888V17.0354C935.65 6.80655 949.951 0 964.928 0C989.824 0 1008.02 15.8946 1008.02 45.6495Z" fill="#757E6C"/>
<path d="M47.7668 91.5272C37.6923 91.5272 29.5286 83.4849 29.5286 73.5602V2.71882H0V73.5602C0 98.3908 20.4384 118.525 45.6438 118.525H71.7177V91.5272H47.7668Z" fill="#757E6C"/>
<path d="M223.317 65.822C244.373 52.4181 256.841 25.6672 256.841 6.2742V2.92796H227.833V6.2742C227.833 23.8229 212.142 48.0071 193.634 53.3687V2.94697H164.955V118.335H193.634V73.9214L231.056 118.335H265.545V114.932L223.317 65.841V65.822Z" fill="#757E6C"/>
<path d="M1121.27 2.73783L1092.34 50.9541L1063.41 2.73783H1032.84V6.14111L1077.72 76.7163V118.544H1107.15V76.5642L1152 6.14111V2.73783H1121.27Z" fill="#757E6C"/>
</svg>
