<svg width="210" height="32" viewBox="0 0 210 32" fill="none" xmlns="http://www.w3.org/2000/svg">
<g clip-path="url(#clip0_326_310)">
<path d="M163.78 15.6853V6.27639H166.149V15.6853H163.78Z" fill="#757E6C"/>
<path d="M188.892 10.7579C188.892 10.9611 188.872 11.201 188.856 11.3477H182.037C182.239 13.0467 183.378 14.0033 185.05 14.0033C186.042 14.0033 187.383 13.6901 188.322 13.264V15.1096C187.549 15.5329 186.098 15.9026 184.775 15.9026C181.596 15.9026 179.794 13.7437 179.794 10.9018C179.794 7.85678 181.835 6.0478 184.536 6.0478C187.237 6.0478 188.909 8.02328 188.892 10.7523V10.7579ZM182.15 9.83508H186.669C186.503 8.65544 185.75 7.9358 184.539 7.9358C183.327 7.9358 182.445 8.65544 182.15 9.83508Z" fill="#757E6C"/>
<path d="M158.507 13.4897C157.703 13.4897 157.054 12.835 157.054 12.0307V6.27357H154.699V12.0307C154.699 14.0485 156.329 15.6853 158.339 15.6853H160.418V13.4897H158.51H158.507Z" fill="#757E6C"/>
<path d="M174.797 11.4042C176.475 10.3148 177.47 8.14181 177.47 6.56425V6.29332H175.157V6.56425C175.157 7.99224 173.906 9.95643 172.431 10.391V6.29332H170.143V15.6684H172.431V12.0589L175.413 15.6684H178.161V15.3918L174.794 11.4042H174.797Z" fill="#757E6C"/>
<path d="M154.426 30.8994V28.9606C155.289 29.477 156.593 29.7536 157.532 29.7536C158.358 29.7536 159.204 29.4037 159.204 28.7376C159.204 28.2212 158.8 27.9446 158.232 27.7979L156.579 27.3548C154.907 26.9117 154.283 25.8224 154.283 24.5327C154.283 22.7971 155.955 21.7472 158.086 21.7472C159.171 21.7472 160.292 22.0069 160.86 22.3568V24.2561C160.07 23.813 158.929 23.6296 158.066 23.6296C157.293 23.6296 156.613 23.9062 156.613 24.5891C156.613 25.0689 156.998 25.3454 157.605 25.512L159.131 25.955C161.042 26.4715 161.537 27.5608 161.537 28.7771C161.537 30.6962 159.772 31.5993 157.568 31.5993C156.394 31.5993 155.014 31.2662 154.426 30.8994Z" fill="#757E6C"/>
<path d="M170.137 21.9674H172.507V31.3763H170.137V30.2136C169.457 31.0433 168.299 31.5964 167.105 31.5964C165.12 31.5964 163.667 30.3039 163.667 27.8882V21.9645H166.056V27.5919C166.056 28.8477 166.773 29.5476 167.875 29.5476C168.721 29.5476 169.567 29.0481 170.134 28.2748V21.9645L170.137 21.9674Z" fill="#757E6C"/>
<path d="M184.867 25.4555V31.3791H182.498V25.7518C182.498 24.496 181.762 23.7961 180.66 23.7961C179.814 23.7961 178.971 24.2956 178.4 25.0689V31.3791H176.031V21.9702H178.4V23.1329C179.097 22.3032 180.238 21.7501 181.433 21.7501C183.417 21.7501 184.87 23.0426 184.87 25.4583L184.867 25.4555Z" fill="#757E6C"/>
<path d="M197.31 25.4555V31.3791H194.94V25.7518C194.94 24.496 194.204 23.7961 193.102 23.7961C192.256 23.7961 191.413 24.2956 190.843 25.0689V31.3791H188.473V21.9702H190.843V23.1329C191.54 22.3032 192.681 21.7501 193.875 21.7501C195.859 21.7501 197.313 23.0426 197.313 25.4583L197.31 25.4555Z" fill="#757E6C"/>
<path d="M206.719 21.9674L204.415 25.8873L202.107 21.9674H199.671V22.2468L203.246 27.9813V31.3791H205.592V27.9672L209.17 22.2468V21.9674H206.719Z" fill="#757E6C"/>
<path d="M141.436 13.6111H134.648V16.5884H141.436V13.6111Z" fill="#757E6C"/>
<path d="M129.308 6.27639C129.646 4.57183 129.826 2.76568 129.826 0.897434H126.253C126.253 5.26325 125.138 9.48796 123.193 12.4879C123.047 12.7165 122.872 12.9676 122.673 13.2329V17.9205C125.211 16.1087 127.279 13.041 128.527 9.25373H129.823V31.3791H132.858V9.25373H142.324V6.27639H129.303H129.308Z" fill="#757E6C"/>
<path d="M141.436 20.9458H134.648V23.9231H141.436V20.9458Z" fill="#757E6C"/>
<path d="M121.785 0.897434H118.215C118.215 5.26325 117.099 9.48796 115.154 12.4879C114.522 13.4615 113.437 14.8613 111.973 15.722V19.2892C113.727 18.7106 115.343 17.579 116.737 16.0183V31.382H119.772V11.1502C121.045 8.20108 121.787 4.67907 121.787 0.897434H121.785Z" fill="#757E6C"/>
<path d="M16.9904 26.9682C16.9904 27.7612 16.3496 28.4018 15.5627 28.4018H14.6689V31.3791H15.7397C18.1062 31.3791 20.0258 29.4516 20.0258 27.0754V23.3107H16.9904V26.9682Z" fill="#757E6C"/>
<path d="M28.064 28.4018C27.2742 28.4018 26.6362 27.7584 26.6362 26.9682V23.3107H23.6008V27.0754C23.6008 29.4516 25.5204 31.3791 27.8869 31.3791H30.7452V28.4018H28.0668H28.064Z" fill="#757E6C"/>
<path d="M20.2956 8.96587H23.331V5.9716H26.7234V2.99427H23.331V0.897434H20.2956V2.99427H16.9005V5.9716H20.2956V8.96587Z" fill="#757E6C"/>
<path d="M7.08044 5.0911H4.40198C2.42898 5.0911 0.829773 6.69689 0.829773 8.67801V21.5158C0.829773 23.497 2.42898 25.1027 4.40198 25.1027H7.08044C9.05344 25.1027 10.6526 23.497 10.6526 21.5158V8.67801C10.6526 6.69689 9.05344 5.0911 7.08044 5.0911ZM3.86517 8.67801C3.86517 8.34218 4.13779 8.06844 4.47225 8.06844H7.00736C7.34182 8.06844 7.61444 8.34218 7.61444 8.67801V13.4474H3.86517V8.67801ZM7.00736 22.1254H4.47225C4.13779 22.1254 3.86517 21.8517 3.86517 21.5158V16.4247H7.61444V21.5158C7.61444 21.8517 7.34182 22.1254 7.00736 22.1254Z" fill="#757E6C"/>
<path d="M15.9421 17.0343H18.9775V14.04H24.6464V17.0343H27.6846V14.04H30.7424V11.0627H27.6846V8.96587H24.6464V11.0627H18.9775V8.96587H15.9421V11.0627H12.8842V14.04H15.9421V17.0343Z" fill="#757E6C"/>
<path d="M30.7424 18.6852H12.8842V21.6626H30.7424V18.6852Z" fill="#757E6C"/>
<path d="M98.1113 5.37896H95.0759V22.4133H98.1113V5.37896Z" fill="#757E6C"/>
<path d="M100.97 0.897434V26.9682C100.97 27.7612 100.329 28.4018 99.5419 28.4018H94.719V31.3791H99.719C102.085 31.3791 104.005 29.4516 104.005 27.0754V0.897434H100.97Z" fill="#757E6C"/>
<path d="M91.5684 14.7935V11.8162H85.6831V8.06844H91.5684V5.0911H85.6831V0.897434H82.6477V5.09392H81.2368C80.447 5.09392 79.809 4.45048 79.809 3.66029V1.79487H76.7736V3.76753C76.7736 6.14375 78.6932 8.07126 81.0597 8.07126H82.6477V11.819H76.7736V14.7964H82.6477V18.5441H81.0597C78.6932 18.5441 76.7736 20.4716 76.7736 22.8479V26.9004H79.809V22.9551C79.809 22.1621 80.4498 21.5215 81.2368 21.5215H82.6477V31.3848H85.6831V21.5215H87.1052C87.895 21.5215 88.533 22.1649 88.533 22.9551V26.9004H91.5684V22.8479C91.5684 20.4716 89.6488 18.5441 87.2823 18.5441H85.6831V14.7964H91.5684V14.7935Z" fill="#757E6C"/>
<path d="M68.8057 15.9986C68.8057 24.8346 61.6725 31.9972 52.8727 31.9972V28.4413C52.9964 28.4413 53.1172 28.4413 53.2381 28.4357C59.9047 28.2409 65.2672 22.735 65.2672 15.9958C65.2672 9.25655 59.8541 3.70262 53.1481 3.55587C53.0582 3.55587 52.9655 3.55305 52.8755 3.55305C52.7856 3.55305 52.6928 3.55305 52.6029 3.55587C46.8722 3.70262 42.2545 8.42967 42.2545 14.2178C42.2545 20.006 47.0211 24.8854 52.8783 24.8854V28.4413C52.7547 28.4413 52.6338 28.4413 52.513 28.4357C44.8711 28.2409 38.716 21.9391 38.716 14.2207C38.716 6.50216 45.0622 0 52.8699 0C61.6697 0 68.8029 7.16254 68.8029 15.9986H68.8057Z" fill="#757E6C"/>
<path d="M60.8378 14.2235C60.8378 15.2056 60.0452 16.0014 59.0672 16.0014H48.4433C47.4652 16.0014 46.6726 15.2056 46.6726 14.2235C46.6726 13.2414 47.4652 12.4455 48.4433 12.4455H59.0672C60.0452 12.4455 60.8378 13.2414 60.8378 14.2235Z" fill="#757E6C"/>
</g>
<defs>
<clipPath id="clip0_326_310">
<rect width="208.34" height="32" fill="white" transform="translate(0.829773)"/>
</clipPath>
</defs>
</svg>